<svg width="56" height="56" viewBox="0 0 56 56" fill="none" xmlns="http://www.w3.org/2000/svg">
<circle cx="28" cy="28" r="28" fill="#017AFF"/>
<g clip-path="url(#clip0_36_91)">
<path d="M40.6908 15.2368C40.5931 15.1504 40.4785 15.0853 40.3543 15.0455C40.2301 15.0057 40.099 14.9921 39.9693 15.0055L23.255 16.8626C22.7845 16.9147 22.4285 17.3123 22.4286 17.7856V34.3337C21.587 33.8301 20.6236 33.5665 19.6429 33.5714C17.0828 33.5714 15 35.2372 15 37.2857C15 39.3341 17.0828 41 19.6428 41C22.2029 41 24.2857 39.335 24.2857 37.2857V23.2643L39.1428 21.6096V32.4738C38.301 31.9712 37.3376 31.7085 36.3571 31.7142C33.797 31.7142 31.7143 33.3801 31.7143 35.4285C31.7143 37.477 33.7971 39.1428 36.3571 39.1428C38.9171 39.1428 40.9999 37.4779 40.9999 35.4285V15.9286C40.9999 15.6645 40.8875 15.4129 40.6908 15.2368Z" fill="white"/>
</g>
<defs>
<clipPath id="clip0_36_91">
<rect width="26" height="26" fill="white" transform="translate(15 15)"/>
</clipPath>
</defs>
</svg>
