<svg width="56" height="56" viewBox="0 0 56 56" fill="none" xmlns="http://www.w3.org/2000/svg">
<circle cx="28" cy="28" r="28" fill="#017AFF"/>
<path d="M35.3155 37.459H29.7372V31.8223H31.5807C32.0482 31.8223 32.3245 31.2911 32.0482 30.9086L28.4622 25.9466C28.2338 25.6278 27.7609 25.6278 27.5325 25.9466L23.9465 30.9086C23.6702 31.2911 23.9412 31.8223 24.414 31.8223H26.2575V37.459H20.0098C17.2207 37.305 15 34.6965 15 31.8702C15 29.9204 16.0572 28.2204 17.6244 27.3013C17.481 26.9135 17.4066 26.4991 17.4066 26.0635C17.4066 24.0712 19.0163 22.4615 21.0086 22.4615C21.4389 22.4615 21.8533 22.5359 22.2411 22.6793C23.394 20.2355 25.8803 18.5408 28.7703 18.5408C32.5104 18.5461 35.5917 21.4096 35.9424 25.0594C38.8165 25.5534 41 28.2151 41 31.2273C41 34.4468 38.4924 37.2359 35.3155 37.459Z" fill="white"/>
</svg>
