<svg width="56" height="56" viewBox="0 0 56 56" fill="none" xmlns="http://www.w3.org/2000/svg">
<circle cx="28" cy="28" r="28" fill="#017AFF"/>
<g clip-path="url(#clip0_36_115)">
<path d="M27.9999 15C20.8596 15 15 20.8596 15 27.9999C15 30.323 15.6286 32.5969 16.821 34.6017L15.0394 39.9971C14.9946 40.1313 14.988 40.2753 15.0205 40.413C15.0529 40.5507 15.1231 40.6766 15.2231 40.7767C15.4284 40.982 15.7325 41.0522 16.0027 40.9604L21.3981 39.1788C23.4029 40.3712 25.6768 40.9998 27.9999 40.9998C35.1402 40.9998 40.9998 35.1402 40.9998 27.9999C40.9998 20.8596 35.1402 15 27.9999 15ZM27.9999 37.9021C26.7398 37.9021 25.7147 36.8771 25.7147 35.617C25.7147 34.3569 26.7398 33.3318 27.9999 33.3318C29.26 33.3318 30.2851 34.3569 30.2851 35.617C30.2851 36.8771 29.26 37.9021 27.9999 37.9021ZM31.2112 26.9429L29.5233 28.6307V30.2851C29.5233 31.1249 28.8397 31.8085 27.9999 31.8085C27.1601 31.8085 26.4765 31.1249 26.4765 30.2851V28.6307C26.4765 27.8169 26.7933 27.0522 27.3691 26.4765L29.0569 24.7886C29.4471 24.3985 29.5233 24.0034 29.5233 23.4995C29.5233 22.621 28.8085 21.9061 27.93 21.9061C27.1288 21.9061 26.4765 22.5585 26.4765 23.3597C26.4765 24.1995 25.7928 24.8831 24.953 24.8831C24.1132 24.8831 23.4296 24.1995 23.4296 23.3597C23.4296 20.8781 25.4484 18.8593 27.9299 18.8593C30.4888 18.8593 32.5701 20.9406 32.5701 23.4995C32.5702 24.9392 32.0992 26.0549 31.2112 26.9429Z" fill="white"/>
</g>
<defs>
<clipPath id="clip0_36_115">
<rect width="26" height="26" fill="white" transform="translate(15 15)"/>
</clipPath>
</defs>
</svg>
