<svg width="56" height="56" viewBox="0 0 56 56" fill="none" xmlns="http://www.w3.org/2000/svg">
<circle cx="28" cy="28" r="28" fill="#017AFF"/>
<path d="M37.2347 17.1936C36.8034 16.7615 36.2299 16.5234 35.6197 16.5234H34.6069V17.5391C34.6069 18.6591 33.6967 19.5703 32.5779 19.5703H23.4474C22.3286 19.5703 21.4184 18.6591 21.4184 17.5391V16.5234H20.4022C19.145 16.5234 18.121 17.5474 18.1196 18.8061L18.0977 38.7123C18.0969 39.3232 18.3341 39.8976 18.7653 40.3298C19.1966 40.762 19.7701 41 20.3803 41H35.5977C36.855 41 37.879 39.976 37.8804 38.7174L37.9023 18.8111C37.9031 18.2003 37.6659 17.6258 37.2347 17.1936ZM28.2587 24.1406H33.6645C34.0847 24.1406 34.4254 24.4817 34.4254 24.9023C34.4254 25.323 34.0847 25.6641 33.6645 25.6641H28.2587C27.8385 25.6641 27.4978 25.323 27.4978 24.9023C27.4978 24.4817 27.8385 24.1406 28.2587 24.1406ZM28.2587 29.2188H33.6645C34.0847 29.2188 34.4254 29.5598 34.4254 29.9805C34.4254 30.4011 34.0847 30.7422 33.6645 30.7422H28.2587C27.8385 30.7422 27.4978 30.4011 27.4978 29.9805C27.4978 29.5598 27.8385 29.2188 28.2587 29.2188ZM28.2587 34.2969H33.6862C34.1064 34.2969 34.4471 34.6379 34.4471 35.0586C34.4471 35.4793 34.1064 35.8203 33.6862 35.8203H28.2587C27.8385 35.8203 27.4978 35.4793 27.4978 35.0586C27.4978 34.6379 27.8385 34.2969 28.2587 34.2969ZM21.7758 24.1707C22.073 23.8732 22.5547 23.8732 22.8518 24.1707L23.2656 24.5849L25.0203 22.8283C25.3174 22.5309 25.7991 22.5308 26.0963 22.8283C26.3934 23.1257 26.3934 23.608 26.0963 23.9055L23.8035 26.2007C23.7329 26.2714 23.6491 26.3276 23.5567 26.3658C23.4644 26.4041 23.3655 26.4238 23.2655 26.4238C23.1656 26.4238 23.0666 26.4041 22.9743 26.3658C22.882 26.3276 22.7981 26.2714 22.7275 26.2007L21.7757 25.2479C21.4786 24.9504 21.4786 24.4681 21.7758 24.1707ZM21.7758 29.6366C22.073 29.3392 22.5547 29.3392 22.8518 29.6366L23.2656 30.0508L25.0203 28.2942C25.3174 27.9967 25.7991 27.9967 26.0963 28.2942C26.3934 28.5916 26.3934 29.0739 26.0963 29.3714L23.8035 31.6667C23.7329 31.7374 23.649 31.7935 23.5567 31.8317C23.4644 31.87 23.3655 31.8897 23.2655 31.8897C23.1656 31.8897 23.0666 31.87 22.9743 31.8317C22.882 31.7935 22.7981 31.7374 22.7275 31.6667L21.7757 30.7138C21.4786 30.4164 21.4786 29.9341 21.7758 29.6366ZM21.7758 34.7148C22.073 34.4173 22.5547 34.4173 22.8518 34.7148L23.2656 35.1289L25.0203 33.3723C25.3174 33.0749 25.7991 33.0749 26.0963 33.3723C26.3934 33.6697 26.3934 34.152 26.0963 34.4495L23.8035 36.7448C23.7329 36.8155 23.649 36.8716 23.5567 36.9099C23.4644 36.9481 23.3655 36.9678 23.2655 36.9678C23.1656 36.9678 23.0666 36.9481 22.9743 36.9099C22.882 36.8716 22.7981 36.8155 22.7275 36.7448L21.7757 35.7919C21.4786 35.4945 21.4786 35.0122 21.7758 34.7148Z" fill="white"/>
<path d="M22.9402 17.5391C22.9402 17.8195 23.1673 18.0469 23.4474 18.0469H32.5779C32.8581 18.0469 33.0852 17.8195 33.0852 17.5391V15.5078C33.0852 15.2273 32.8581 15 32.5779 15H23.4474C23.1673 15 22.9402 15.2273 22.9402 15.5078V17.5391Z" fill="white"/>
</svg>
