<svg width="56" height="56" viewBox="0 0 56 56" fill="none" xmlns="http://www.w3.org/2000/svg">
<circle cx="28" cy="28" r="28" fill="#017AFF"/>
<g clip-path="url(#clip0_36_125)">
<path d="M45.5833 25H44.75C44.6953 24.9999 44.6411 25.0107 44.5905 25.0316C44.5399 25.0525 44.494 25.0832 44.4553 25.1219C44.4166 25.1606 44.3859 25.2066 44.365 25.2572C44.344 25.3077 44.3333 25.3619 44.3333 25.4167V32.1549L32.3005 20.122C32.2239 20.0453 32.1204 20.0015 32.0121 20.0001C31.9563 19.9992 31.9009 20.0095 31.8492 20.0304C31.7975 20.0514 31.7506 20.0825 31.7112 20.122L31.1221 20.7111C31.0465 20.7864 31.0029 20.8879 31.0002 20.9945C30.9986 21.0511 31.0086 21.1075 31.0295 21.1601C31.0505 21.2126 31.082 21.2604 31.1221 21.3004L43.155 33.3333H36.4167C36.362 33.3333 36.3078 33.344 36.2572 33.3649C36.2066 33.3859 36.1607 33.4166 36.122 33.4553C36.0833 33.494 36.0526 33.5399 36.0317 33.5905C36.0107 33.641 36 33.6952 36 33.75V34.5833C36 34.638 36.0107 34.6922 36.0317 34.7428C36.0526 34.7934 36.0833 34.8393 36.122 34.878C36.1607 34.9167 36.2066 34.9474 36.2572 34.9683C36.3078 34.9893 36.362 35 36.4167 35H45.5834C45.6381 35 45.6923 34.9893 45.7429 34.9683C45.7934 34.9474 45.8394 34.9167 45.8781 34.878C45.9168 34.8393 45.9475 34.7934 45.9684 34.7428C45.9893 34.6922 46.0001 34.638 46 34.5833V25.4167C46.0001 25.3619 45.9893 25.3077 45.9684 25.2572C45.9474 25.2066 45.9168 25.1606 45.878 25.1219C45.8393 25.0833 45.7934 25.0526 45.7428 25.0316C45.6923 25.0107 45.6381 24.9999 45.5833 25Z" fill="white"/>
</g>
<path d="M11.1 28.4H16.6V30.48H11.1V28.4ZM24.1447 26.78C25.438 26.94 26.4247 27.38 27.1047 28.1C27.7847 28.82 28.1247 29.72 28.1247 30.8C28.1247 31.6133 27.918 32.3533 27.5047 33.02C27.0914 33.6867 26.4647 34.22 25.6247 34.62C24.798 35.0067 23.7847 35.2 22.5847 35.2C21.5847 35.2 20.618 35.06 19.6847 34.78C18.7647 34.4867 17.978 34.0867 17.3247 33.58L18.4447 31.56C18.9514 31.9867 19.5647 32.3267 20.2847 32.58C21.018 32.82 21.7714 32.94 22.5447 32.94C23.4647 32.94 24.1847 32.7533 24.7047 32.38C25.238 31.9933 25.5047 31.4733 25.5047 30.82C25.5047 30.1667 25.2514 29.66 24.7447 29.3C24.2514 28.9267 23.4914 28.74 22.4647 28.74H21.1847V26.96L24.3647 23.18H18.0047V21H27.5447V22.74L24.1447 26.78Z" fill="white"/>
<defs>
<clipPath id="clip0_36_125">
<rect width="15" height="15" fill="white" transform="translate(31 20)"/>
</clipPath>
</defs>
</svg>
