<svg width="56" height="56" viewBox="0 0 56 56" fill="none" xmlns="http://www.w3.org/2000/svg">
<circle cx="28" cy="28" r="28" fill="#017AFF"/>
<g clip-path="url(#clip0_36_130)">
<path d="M45.5833 25H44.75C44.6953 24.9999 44.6411 25.0107 44.5905 25.0316C44.5399 25.0525 44.494 25.0832 44.4553 25.1219C44.4166 25.1606 44.3859 25.2066 44.365 25.2572C44.344 25.3077 44.3333 25.3619 44.3333 25.4167V32.1549L32.3005 20.122C32.2239 20.0453 32.1204 20.0015 32.0121 20.0001C31.9563 19.9992 31.9009 20.0095 31.8492 20.0304C31.7975 20.0514 31.7506 20.0825 31.7112 20.122L31.1221 20.7111C31.0465 20.7864 31.0029 20.8879 31.0002 20.9945C30.9986 21.0511 31.0086 21.1075 31.0295 21.1601C31.0505 21.2126 31.082 21.2604 31.1221 21.3004L43.155 33.3333H36.4167C36.362 33.3333 36.3078 33.344 36.2572 33.3649C36.2066 33.3859 36.1607 33.4166 36.122 33.4553C36.0833 33.494 36.0526 33.5399 36.0317 33.5905C36.0107 33.641 36 33.6952 36 33.75V34.5833C36 34.638 36.0107 34.6922 36.0317 34.7428C36.0526 34.7934 36.0833 34.8393 36.122 34.878C36.1607 34.9167 36.2066 34.9474 36.2572 34.9683C36.3078 34.9893 36.362 35 36.4167 35H45.5834C45.6381 35 45.6923 34.9893 45.7429 34.9683C45.7934 34.9474 45.8394 34.9167 45.8781 34.878C45.9168 34.8393 45.9475 34.7934 45.9684 34.7428C45.9893 34.6922 46.0001 34.638 46 34.5833V25.4167C46.0001 25.3619 45.9893 25.3077 45.9684 25.2572C45.9474 25.2066 45.9168 25.1606 45.878 25.1219C45.8393 25.0833 45.7934 25.0526 45.7428 25.0316C45.6923 25.0107 45.6381 24.9999 45.5833 25Z" fill="white"/>
</g>
<path d="M11.1 28.4H16.6V30.48H11.1V28.4ZM28.4223 32.8V35H18.1023V33.26L23.6623 27.98C24.289 27.38 24.709 26.86 24.9223 26.42C25.149 25.9667 25.2623 25.52 25.2623 25.08C25.2623 24.4267 25.0423 23.9267 24.6023 23.58C24.1623 23.2333 23.5157 23.06 22.6623 23.06C21.2357 23.06 20.1423 23.5467 19.3823 24.52L17.5623 23.12C18.109 22.3867 18.8423 21.82 19.7623 21.42C20.6957 21.0067 21.7357 20.8 22.8823 20.8C24.4023 20.8 25.6157 21.16 26.5223 21.88C27.429 22.6 27.8823 23.58 27.8823 24.82C27.8823 25.58 27.7223 26.2933 27.4023 26.96C27.0823 27.6267 26.469 28.3867 25.5623 29.24L21.8223 32.8H28.4223Z" fill="white"/>
<defs>
<clipPath id="clip0_36_130">
<rect width="15" height="15" fill="white" transform="translate(31 20)"/>
</clipPath>
</defs>
</svg>
