<svg width="56" height="56" viewBox="0 0 56 56" fill="none" xmlns="http://www.w3.org/2000/svg">
<circle cx="28" cy="28" r="28" fill="#017AFF"/>
<g clip-path="url(#clip0_36_135)">
<path d="M20.0814 19.3861C19.9729 18.958 19.5378 18.699 19.1097 18.8073C18.6814 18.9159 18.4223 19.3509 18.5308 19.7792L23.7562 40.3965C23.848 40.7588 24.1736 41 24.5309 41C24.596 41 24.6621 40.992 24.7281 40.9753C25.1562 40.8668 25.4154 40.4317 25.3069 40.0035L20.0814 19.3861ZM37.4745 25.1931C36.6229 22.0487 35.7705 18.9045 34.9188 15.76C34.8264 15.4197 34.6646 15.0546 34.0562 15.0181C29.2671 14.6712 26.1225 19.4405 21.3334 19.0936C20.9554 19.047 20.7126 19.2438 20.8048 19.5842C21.6566 22.7286 22.5019 25.8748 23.3605 29.0173C23.4983 29.5217 23.8451 29.7127 24.2232 29.7593C29.0122 30.1062 32.1569 25.3369 36.9461 25.6838C37.324 25.7303 37.5668 25.5336 37.4745 25.1931ZM33.7163 16.2051C33.9512 17.0726 34.1865 17.9401 34.4214 18.8076C33.414 18.8408 32.5249 19.0441 31.5827 19.3971C31.3478 18.5296 31.1126 17.6621 30.8777 16.7946C31.8198 16.4416 32.7089 16.2382 33.7163 16.2051ZM23.8476 25.9314C23.5803 24.9458 23.3134 23.9599 23.0464 22.9742C24.1053 22.9435 25.045 22.7141 26.0278 22.3256C25.7927 21.458 25.5576 20.5905 25.3227 19.723C26.2835 19.2935 27.1897 18.7793 28.0973 18.2483C28.3322 19.1158 28.5675 19.9833 28.8025 20.8508C27.8948 21.3818 26.9885 21.8962 26.0278 22.3256C26.2949 23.3112 26.5619 24.2971 26.829 25.2827C25.846 25.6712 24.9065 25.9007 23.8476 25.9314ZM27.5445 27.9234C27.3059 27.0432 27.0675 26.1629 26.829 25.2826C27.783 24.8564 28.6829 24.3466 29.584 23.8193L30.2994 26.4601C29.3985 26.9875 28.4985 27.4972 27.5445 27.9234ZM29.6035 23.808C29.3366 22.8222 29.0695 21.8365 28.8025 20.8507C29.7099 20.3209 30.6169 19.8139 31.5827 19.3972C31.8499 20.3829 32.1169 21.3686 32.3839 22.3543C31.4183 22.7711 30.511 23.2781 29.6035 23.808ZM33.1161 24.9884L32.4005 22.3476C33.3371 21.9984 34.2217 21.7975 35.2225 21.7649L35.9382 24.4056C34.9373 24.4383 34.0526 24.6391 33.1161 24.9884Z" fill="white"/>
</g>
<defs>
<clipPath id="clip0_36_135">
<rect width="26" height="26" fill="white" transform="translate(15 15)"/>
</clipPath>
</defs>
</svg>
