<svg width="21" height="18" viewBox="0 0 21 18" fill="none" xmlns="http://www.w3.org/2000/svg">
<path opacity="0.3" d="M4.5475 0.127998C5.74217 0.127998 6.7235 0.554665 7.4915 1.408C8.30217 2.21866 8.7075 3.24266 8.7075 4.48C8.7075 5.12 8.6435 5.76 8.5155 6.4C8.3875 6.99733 8.11017 7.872 7.6835 9.024L4.6115 17.984H0.5795L2.9475 8.448C2.13683 8.14933 1.4755 7.65867 0.9635 6.976C0.494167 6.25066 0.2595 5.41866 0.2595 4.48C0.2595 3.2 0.664833 2.15466 1.4755 1.344C2.28617 0.533332 3.31017 0.127998 4.5475 0.127998ZM16.6435 0.127998C17.8382 0.127998 18.8195 0.554665 19.5875 1.408C20.3982 2.21866 20.8035 3.24266 20.8035 4.48C20.8035 5.12 20.7395 5.76 20.6115 6.4C20.4835 6.99733 20.2062 7.872 19.7795 9.024L16.7075 17.984H12.6755L15.0435 8.448C14.2328 8.14933 13.5715 7.65867 13.0595 6.976C12.5902 6.25066 12.3555 5.41866 12.3555 4.48C12.3555 3.2 12.7608 2.15466 13.5715 1.344C14.3822 0.533332 15.4062 0.127998 16.6435 0.127998Z" fill="#017AFF"/>
</svg>
