<svg width="13" height="12" viewBox="0 0 13 12" fill="none" xmlns="http://www.w3.org/2000/svg">
<path opacity="0.3" d="M2.77969 0.079999C3.52635 0.079999 4.13969 0.346665 4.61969 0.879998C5.12635 1.38666 5.37969 2.02667 5.37969 2.8C5.37969 3.2 5.33969 3.6 5.25969 4C5.17969 4.37333 5.00635 4.92 4.73969 5.64L2.81969 11.24H0.299688L1.77969 5.28C1.27302 5.09333 0.859688 4.78667 0.539688 4.36C0.246354 3.90666 0.0996875 3.38667 0.0996875 2.8C0.0996875 2 0.353021 1.34667 0.859688 0.839999C1.36635 0.333332 2.00635 0.079999 2.77969 0.079999ZM10.3397 0.079999C11.0864 0.079999 11.6997 0.346665 12.1797 0.879998C12.6864 1.38666 12.9397 2.02667 12.9397 2.8C12.9397 3.2 12.8997 3.6 12.8197 4C12.7397 4.37333 12.5664 4.92 12.2997 5.64L10.3797 11.24H7.85969L9.33969 5.28C8.83302 5.09333 8.41969 4.78667 8.09969 4.36C7.80635 3.90666 7.65969 3.38667 7.65969 2.8C7.65969 2 7.91302 1.34667 8.41969 0.839999C8.92635 0.333332 9.56635 0.079999 10.3397 0.079999Z" fill="#017AFF"/>
</svg>
