<svg width="102" height="102" viewBox="0 0 102 102" fill="none" xmlns="http://www.w3.org/2000/svg">
<g clip-path="url(#clip0_36_35)">
<path d="M17 38.25C24.0416 38.25 29.75 32.5416 29.75 25.5C29.75 18.4584 24.0416 12.75 17 12.75C9.95837 12.75 4.25 18.4584 4.25 25.5C4.25 32.5416 9.95837 38.25 17 38.25Z" fill="#017AFF"/>
<path d="M30.9825 47.0475C26.7049 49.7168 23.1769 53.4308 20.7307 57.8398C18.2846 62.2488 17.0007 67.2079 17 72.25H8.5C6.24773 72.2433 4.08963 71.3456 2.49702 69.753C0.90442 68.1604 0.00672659 66.0023 0 63.75L0 55.25C0.0100899 51.8716 1.35663 48.6344 3.74553 46.2455C6.13444 43.8566 9.37159 42.5101 12.75 42.5H21.25C23.1054 42.5042 24.9376 42.9133 26.6186 43.6987C28.2995 44.4842 29.7888 45.627 30.9825 47.0475Z" fill="#017AFF"/>
<path d="M85 38.25C92.0416 38.25 97.75 32.5416 97.75 25.5C97.75 18.4584 92.0416 12.75 85 12.75C77.9584 12.75 72.25 18.4584 72.25 25.5C72.25 32.5416 77.9584 38.25 85 38.25Z" fill="#017AFF"/>
<path d="M102 55.25V63.75C101.993 66.0023 101.096 68.1604 99.5031 69.753C97.9105 71.3456 95.7524 72.2433 93.5001 72.25H85.0001C84.9994 67.2079 83.7155 62.2488 81.2693 57.8398C78.8232 53.4308 75.2952 49.7168 71.0176 47.0475C72.2112 45.627 73.7005 44.4842 75.3815 43.6987C77.0625 42.9133 78.8947 42.5042 80.7501 42.5H89.2501C92.6285 42.5101 95.8656 43.8566 98.2545 46.2455C100.643 48.6344 101.99 51.8716 102 55.25Z" fill="#017AFF"/>
<path d="M51 46.75C60.3888 46.75 68 39.1388 68 29.75C68 20.3612 60.3888 12.75 51 12.75C41.6112 12.75 34 20.3612 34 29.75C34 39.1388 41.6112 46.75 51 46.75Z" fill="#017AFF"/>
<path d="M76.5 72.25V76.5C76.4899 79.8784 75.1434 83.1156 72.7545 85.5045C70.3656 87.8934 67.1284 89.2399 63.75 89.25H38.25C34.8716 89.2399 31.6344 87.8934 29.2455 85.5045C26.8566 83.1156 25.5101 79.8784 25.5 76.5V72.25C25.5 66.6141 27.7388 61.2091 31.724 57.224C35.7091 53.2388 41.1141 51 46.75 51H55.25C60.8858 51 66.2909 53.2388 70.276 57.224C74.2612 61.2091 76.5 66.6141 76.5 72.25Z" fill="#017AFF"/>
</g>
<defs>
<clipPath id="clip0_36_35">
<rect width="102" height="102" fill="white"/>
</clipPath>
</defs>
</svg>
