<svg width="102" height="102" viewBox="0 0 102 102" fill="none" xmlns="http://www.w3.org/2000/svg">
<path d="M83.008 18.9303C73.2206 18.9303 65.1395 26.3725 64.1243 35.895C71.2278 40.3019 75.969 48.1706 75.969 57.1273V69.9305C75.969 74.601 73.8643 78.8943 70.4174 81.7547V98.9499C70.4174 100.6 71.7553 101.938 73.4057 101.938H92.6103C94.2607 101.938 95.5986 100.6 95.5986 98.9499V69.2304C99.3158 67.9793 102 64.4613 102 60.3279V37.9224C102 27.4503 93.4801 18.9303 83.008 18.9303ZM83.008 18.9303C88.2441 18.9303 92.5042 14.6704 92.5042 9.43413C92.0268 -3.14654 73.9874 -3.14295 73.5118 9.43433C73.5118 14.6704 77.7717 18.9303 83.008 18.9303ZM60.4963 28.6388C60.4963 23.4025 56.2364 19.1427 51.0001 19.1427C38.4195 19.62 38.4228 37.6594 51.0003 38.135C56.2362 38.135 60.4963 33.8751 60.4963 28.6388Z" fill="#017AFF"/>
<path d="M51 38.135C41.2125 38.135 33.1314 45.5772 32.1162 55.0997C39.2198 59.5066 43.961 67.3753 43.961 76.332V79.5327C43.961 84.2029 41.8562 88.4965 38.4093 91.3569V98.9499C38.4093 100.6 39.7473 101.938 41.3976 101.938H60.6023C62.2526 101.938 63.5906 100.6 63.5906 98.9499V78.8328C67.3078 77.5819 69.9921 74.0639 69.9921 69.9303V57.1271C69.9921 46.6548 61.4723 38.135 51 38.135Z" fill="#017AFF"/>
<path d="M18.9921 57.3397C8.48413 57.3397 0 65.845 0 76.3318V79.5325C0 83.6661 2.68427 87.1841 6.4015 88.435V98.9497C6.4015 100.6 7.73945 101.938 9.38978 101.938H28.5945C30.2448 101.938 31.5827 100.6 31.5827 98.9497V88.435C35.3 87.1841 37.9842 83.6661 37.9842 79.5325V76.3318C37.9844 65.8254 29.4814 57.3397 18.9921 57.3397Z" fill="#017AFF"/>
<path d="M18.992 57.3397C24.2281 57.3397 28.4882 53.0798 28.4882 47.8436C28.0108 35.2629 9.97138 35.2665 9.49585 47.8438C9.49605 53.0798 13.7559 57.3397 18.992 57.3397Z" fill="#017AFF"/>
</svg>
