<svg width="13" height="12" viewBox="0 0 13 12" fill="none" xmlns="http://www.w3.org/2000/svg">
<path opacity="0.3" d="M3.65969 6.28C4.19302 6.46667 4.60635 6.77333 4.89969 7.2C5.19302 7.62667 5.33969 8.14667 5.33969 8.76C5.33969 9.56 5.08635 10.2133 4.57969 10.72C4.07302 11.2267 3.44635 11.48 2.69969 11.48C1.92635 11.48 1.28635 11.2267 0.779688 10.72C0.273021 10.1867 0.0196877 9.53333 0.0196877 8.76C0.0196877 8.38667 0.0596876 8.01333 0.139688 7.64C0.246354 7.24 0.446354 6.66667 0.739688 5.92L2.61969 0.319998H5.13969L3.65969 6.28ZM11.2197 6.28C11.753 6.46667 12.1664 6.77333 12.4597 7.2C12.753 7.62667 12.8997 8.14667 12.8997 8.76C12.8997 9.56 12.6464 10.2133 12.1397 10.72C11.633 11.2267 11.0064 11.48 10.2597 11.48C9.48635 11.48 8.84635 11.2267 8.33969 10.72C7.83302 10.1867 7.57969 9.53333 7.57969 8.76C7.57969 8.38667 7.61969 8.01333 7.69969 7.64C7.80635 7.24 8.00635 6.66667 8.29969 5.92L10.1797 0.319998H12.6997L11.2197 6.28Z" fill="#017AFF"/>
</svg>
