<svg width="21" height="19" viewBox="0 0 21 19" fill="none" xmlns="http://www.w3.org/2000/svg">
<path opacity="0.3" d="M5.9555 10.048C6.80883 10.3467 7.47017 10.8373 7.9395 11.52C8.40883 12.2027 8.6435 13.0347 8.6435 14.016C8.6435 15.296 8.23817 16.3413 7.4275 17.152C6.61683 17.9627 5.61417 18.368 4.4195 18.368C3.18217 18.368 2.15817 17.9627 1.3475 17.152C0.536834 16.2987 0.1315 15.2533 0.1315 14.016C0.1315 13.4187 0.1955 12.8213 0.3235 12.224C0.494167 11.584 0.814167 10.6667 1.2835 9.472L4.2915 0.511997H8.3235L5.9555 10.048ZM18.0515 10.048C18.9048 10.3467 19.5662 10.8373 20.0355 11.52C20.5048 12.2027 20.7395 13.0347 20.7395 14.016C20.7395 15.296 20.3342 16.3413 19.5235 17.152C18.7128 17.9627 17.7102 18.368 16.5155 18.368C15.2782 18.368 14.2542 17.9627 13.4435 17.152C12.6328 16.2987 12.2275 15.2533 12.2275 14.016C12.2275 13.4187 12.2915 12.8213 12.4195 12.224C12.5902 11.584 12.9102 10.6667 13.3795 9.472L16.3875 0.511997H20.4195L18.0515 10.048Z" fill="#017AFF"/>
</svg>
