<svg width="102" height="102" viewBox="0 0 102 102" fill="none" xmlns="http://www.w3.org/2000/svg">
<g clip-path="url(#clip0_36_50)">
<path d="M99.3596 44.6612L87.3646 32.6661C82.4316 27.7332 85.4462 22.5262 90.8218 22.21C99.6758 21.6619 104.651 12.2177 97.4202 4.35448C89.557 -2.85519 80.1549 2.09882 79.6068 10.9317C79.2695 16.3074 74.0204 19.343 69.1085 14.4312L57.3664 2.68909C53.8459 -0.831422 48.133 -0.831422 44.6125 2.68909L32.7228 14.5787C27.7899 19.5117 22.5618 16.4549 22.2246 11.0793C21.6764 2.22531 12.19 -2.81303 4.32686 4.41773C-2.92498 12.302 2.11336 21.7884 10.9673 22.3365C16.343 22.6738 19.3997 27.9229 14.4879 32.8559L2.64038 44.6823C-0.880128 48.2028 -0.880128 53.9157 2.64038 57.4362L14.3825 69.1783C19.3154 74.0901 16.3851 79.2128 11.0095 79.5501C2.15552 80.0982 -2.79849 89.5214 4.43226 97.3846C12.2954 104.615 21.6764 99.6824 22.2246 90.8284C22.5618 85.4528 27.7056 82.5014 32.6385 87.4133L44.486 99.2608C48.0697 102.845 53.9302 102.845 57.514 99.2818L65.8199 90.976L69.3825 87.4133C74.0414 82.5436 71.0269 77.4209 65.7145 77.0836C56.8605 76.5355 51.8432 67.0491 59.074 59.1859C66.9372 51.9552 76.4236 56.9935 76.9717 65.8475C77.309 71.1599 82.4106 74.1534 87.2802 69.4945L90.5056 66.2691L99.191 57.5838L99.2331 57.5416L99.3596 57.4151C102.88 53.8946 102.88 48.1817 99.3596 44.6612Z" fill="#017AFF"/>
</g>
<defs>
<clipPath id="clip0_36_50">
<rect width="102" height="102" fill="white"/>
</clipPath>
</defs>
</svg>
