<svg width="101" height="102" viewBox="0 0 101 102" fill="none" xmlns="http://www.w3.org/2000/svg">
<g clip-path="url(#clip0_36_45)">
<path d="M50.5 0C22.6532 0 0 22.8775 0 51C0 79.1225 22.6532 102 50.5 102C78.3468 102 101 79.1225 101 51C101 22.8775 78.3468 0 50.5 0ZM74.5171 77.3793C74.1268 77.7746 73.6631 78.0882 73.1526 78.302C72.642 78.5158 72.0946 78.6257 71.5419 78.6253C70.9892 78.6257 70.4418 78.5159 69.9313 78.3021C69.4207 78.0883 68.957 77.7747 68.5668 77.3793L47.5248 56.1299C47.1332 55.736 46.8227 55.2677 46.6111 54.752C46.3995 54.2363 46.291 53.6835 46.2919 53.1253V25.5C46.2919 23.1498 48.1768 21.2503 50.5 21.2503C52.8232 21.2503 54.7081 23.1498 54.7081 25.5V51.3658L74.5171 71.3701C76.1623 73.0324 76.1623 75.7179 74.5171 77.3793Z" fill="#017AFF"/>
</g>
<defs>
<clipPath id="clip0_36_45">
<rect width="101" height="102" fill="white"/>
</clipPath>
</defs>
</svg>
